<mxfile host="Electron" modified="2023-11-09T13:52:02.112Z" agent="Mozilla/5.0 (Windows NT 10.0; Win64; x64) AppleWebKit/537.36 (KHTML, like Gecko) draw.io/21.6.8 Chrome/114.0.5735.289 Electron/25.5.0 Safari/537.36" etag="2tOJdfX7SR7Y-XIkTDyk" version="21.6.8" type="device">
  <diagram name="Page-1" id="lHKCt2FMkADKbh5RZciE">
    <mxGraphModel dx="802" dy="943" grid="1" gridSize="10" guides="1" tooltips="1" connect="1" arrows="1" fold="1" page="1" pageScale="1" pageWidth="1169" pageHeight="1654" math="0" shadow="0">
      <root>
        <mxCell id="0" />
        <mxCell id="1" parent="0" />
        <mxCell id="by4M8jhouuiLS1jpNMKc-24" value="" style="group" parent="1" vertex="1" connectable="0">
          <mxGeometry x="195" y="230" width="690" height="850" as="geometry" />
        </mxCell>
        <mxCell id="by4M8jhouuiLS1jpNMKc-23" value="" style="rounded=0;whiteSpace=wrap;html=1;" parent="by4M8jhouuiLS1jpNMKc-24" vertex="1">
          <mxGeometry y="190" width="690" height="660" as="geometry" />
        </mxCell>
        <mxCell id="by4M8jhouuiLS1jpNMKc-22" value="&lt;p style=&quot;margin:0px;margin-top:4px;margin-left:10px;text-align:left;&quot;&gt;&lt;b&gt;STD &lt;/b&gt;GameStateControl&lt;/p&gt;" style="html=1;shape=mxgraph.sysml.package;html=1;overflow=fill;whiteSpace=wrap;labelX=148;" parent="by4M8jhouuiLS1jpNMKc-24" vertex="1">
          <mxGeometry width="690" height="190" as="geometry" />
        </mxCell>
        <mxCell id="l8QAvRInLzL6C51xrTQk-1" value="&lt;p style=&quot;margin:0px;margin-top:4px;text-align:center;&quot;&gt;Idle&lt;/p&gt;&lt;hr&gt;&lt;p&gt;&lt;/p&gt;&lt;p style=&quot;margin:0px;margin-left:8px;text-align:left;&quot;&gt;entry / bForceGameOver = false;&lt;br&gt;&lt;/p&gt;" style="shape=mxgraph.sysml.simpleState;html=1;overflow=fill;whiteSpace=wrap;align=center;" vertex="1" parent="by4M8jhouuiLS1jpNMKc-24">
          <mxGeometry x="250" y="300" width="190" height="60" as="geometry" />
        </mxCell>
        <mxCell id="by4M8jhouuiLS1jpNMKc-12" value="&lt;p style=&quot;margin:0px;margin-top:4px;text-align:center;&quot;&gt;UpdateDisplay&lt;/p&gt;&lt;hr&gt;&lt;p&gt;&lt;/p&gt;&lt;p style=&quot;margin:0px;margin-left:8px;text-align:left;&quot;&gt;entry/ GameData.setGameTime(GameData.getGameTime()-1);&lt;/p&gt;&lt;p style=&quot;margin:0px;margin-left:8px;text-align:left;&quot;&gt;clockTimer.start_periodic(1000000);&lt;/p&gt;&lt;p style=&quot;margin:0px;margin-left:8px;text-align:left;&quot;&gt;displayControl.setTimer(GameData.getGameTime());&lt;/p&gt;&lt;p style=&quot;margin:0px;margin-left:8px;text-align:left;&quot;&gt;displayControl.drawDisplaySet();&lt;/p&gt;&lt;p style=&quot;margin:0px;margin-left:8px;text-align:left;&quot;&gt;&lt;br&gt;&lt;/p&gt;" style="shape=mxgraph.sysml.simpleState;html=1;overflow=fill;whiteSpace=wrap;align=center;" parent="by4M8jhouuiLS1jpNMKc-24" vertex="1">
          <mxGeometry x="185" y="477" width="320" height="120" as="geometry" />
        </mxCell>
        <mxCell id="by4M8jhouuiLS1jpNMKc-8" value="flagStart" style="edgeStyle=orthogonalEdgeStyle;rounded=0;orthogonalLoop=1;jettySize=auto;html=1;" parent="by4M8jhouuiLS1jpNMKc-24" source="l8QAvRInLzL6C51xrTQk-1" target="by4M8jhouuiLS1jpNMKc-12" edge="1">
          <mxGeometry relative="1" as="geometry">
            <mxPoint x="445" y="480" as="targetPoint" />
            <mxPoint x="445" y="350" as="sourcePoint" />
          </mxGeometry>
        </mxCell>
        <mxCell id="l8QAvRInLzL6C51xrTQk-5" style="edgeStyle=orthogonalEdgeStyle;rounded=0;orthogonalLoop=1;jettySize=auto;html=1;exitX=0.25;exitY=1;exitDx=0;exitDy=0;exitPerimeter=0;entryX=0.094;entryY=1.003;entryDx=0;entryDy=0;entryPerimeter=0;" edge="1" parent="by4M8jhouuiLS1jpNMKc-24" source="by4M8jhouuiLS1jpNMKc-12" target="by4M8jhouuiLS1jpNMKc-12">
          <mxGeometry relative="1" as="geometry" />
        </mxCell>
        <mxCell id="l8QAvRInLzL6C51xrTQk-8" value="clockTimer" style="edgeLabel;html=1;align=center;verticalAlign=middle;resizable=0;points=[];" vertex="1" connectable="0" parent="l8QAvRInLzL6C51xrTQk-5">
          <mxGeometry x="-0.1816" y="3" relative="1" as="geometry">
            <mxPoint x="-13" y="7" as="offset" />
          </mxGeometry>
        </mxCell>
        <mxCell id="l8QAvRInLzL6C51xrTQk-6" style="edgeStyle=orthogonalEdgeStyle;rounded=0;orthogonalLoop=1;jettySize=auto;html=1;exitX=0.5;exitY=1;exitDx=0;exitDy=0;exitPerimeter=0;entryX=0;entryY=0.5;entryDx=0;entryDy=0;entryPerimeter=0;" edge="1" parent="by4M8jhouuiLS1jpNMKc-24" source="by4M8jhouuiLS1jpNMKc-12" target="l8QAvRInLzL6C51xrTQk-1">
          <mxGeometry relative="1" as="geometry">
            <mxPoint x="345" y="750" as="targetPoint" />
            <Array as="points">
              <mxPoint x="345" y="750" />
              <mxPoint x="105" y="750" />
              <mxPoint x="105" y="330" />
            </Array>
          </mxGeometry>
        </mxCell>
        <mxCell id="l8QAvRInLzL6C51xrTQk-7" value="[ GameData.getHealth() == 0 || GameData.getGameTime() == 0 || bForceGameOver ]/&lt;br&gt;GameOverControl._start();" style="edgeLabel;html=1;align=center;verticalAlign=middle;resizable=0;points=[];" vertex="1" connectable="0" parent="l8QAvRInLzL6C51xrTQk-6">
          <mxGeometry x="0.1542" y="-1" relative="1" as="geometry">
            <mxPoint x="159" y="179" as="offset" />
          </mxGeometry>
        </mxCell>
        <mxCell id="by4M8jhouuiLS1jpNMKc-1" value="void start() / startFlag.set()&lt;br&gt;void setShotsTaken(int) / GameData.setShotsTaken(int)&lt;br&gt;void decrementHealth() / GameData.setHealth(GameData.gethealth()-1)&lt;br&gt;void forceGameOver() / bForceGameOver = true" style="shape=rect;rounded=1;html=1;whiteSpace=wrap;align=left;spacingLeft=13;" parent="1" vertex="1">
          <mxGeometry x="390" y="292" width="410" height="96" as="geometry" />
        </mxCell>
        <mxCell id="by4M8jhouuiLS1jpNMKc-3" style="edgeStyle=orthogonalEdgeStyle;rounded=0;orthogonalLoop=1;jettySize=auto;html=1;" parent="1" source="by4M8jhouuiLS1jpNMKc-2" target="by4M8jhouuiLS1jpNMKc-1" edge="1">
          <mxGeometry relative="1" as="geometry" />
        </mxCell>
        <mxCell id="by4M8jhouuiLS1jpNMKc-2" value="" style="shape=ellipse;html=1;fillColor=strokeColor;fontSize=18;fontColor=#ffffff;" parent="1" vertex="1">
          <mxGeometry x="260" y="320" width="40" height="40" as="geometry" />
        </mxCell>
        <mxCell id="by4M8jhouuiLS1jpNMKc-6" style="edgeStyle=orthogonalEdgeStyle;rounded=0;orthogonalLoop=1;jettySize=auto;html=1;" parent="1" source="by4M8jhouuiLS1jpNMKc-4" target="l8QAvRInLzL6C51xrTQk-1" edge="1">
          <mxGeometry relative="1" as="geometry">
            <mxPoint x="540" y="530" as="targetPoint" />
          </mxGeometry>
        </mxCell>
        <mxCell id="by4M8jhouuiLS1jpNMKc-4" value="" style="shape=ellipse;html=1;fillColor=strokeColor;fontSize=18;fontColor=#ffffff;" parent="1" vertex="1">
          <mxGeometry x="520" y="450" width="40" height="40" as="geometry" />
        </mxCell>
      </root>
    </mxGraphModel>
  </diagram>
</mxfile>
